<svg xmlns="http://www.w3.org/2000/svg" viewBox="0 0 1200 400" width="1200" height="400">
  <defs>
    <linearGradient id="sky" x1="0" y1="0" x2="0" y2="1">
      <stop offset="0%" stop-color="#050210"/>
      <stop offset="45%" stop-color="#150832"/>
      <stop offset="75%" stop-color="#3a0d55"/>
      <stop offset="100%" stop-color="#7a1a3a"/>
    </linearGradient>
    <radialGradient id="horizonBloom" cx="50%" cy="100%" r="60%">
      <stop offset="0%" stop-color="#ff5500" stop-opacity="0.45"/>
      <stop offset="50%" stop-color="#ff2200" stop-opacity="0.15"/>
      <stop offset="100%" stop-color="#ff2200" stop-opacity="0"/>
    </radialGradient>
    <radialGradient id="traderAura" cx="50%" cy="60%" r="45%">
      <stop offset="0%" stop-color="#8833ff" stop-opacity="0.5"/>
      <stop offset="100%" stop-color="#8833ff" stop-opacity="0"/>
    </radialGradient>
    <linearGradient id="goldGrad" x1="0" y1="0" x2="0" y2="1">
      <stop offset="0%" stop-color="#fff5a0"/>
      <stop offset="35%" stop-color="#ffd700"/>
      <stop offset="100%" stop-color="#b8860b"/>
    </linearGradient>
    <linearGradient id="silverGrad" x1="0" y1="0" x2="0" y2="1">
      <stop offset="0%" stop-color="#e8f4ff"/>
      <stop offset="100%" stop-color="#8ab4d4"/>
    </linearGradient>
    <linearGradient id="groundGrad" x1="0" y1="0" x2="0" y2="1">
      <stop offset="0%" stop-color="#1e3d08"/>
      <stop offset="100%" stop-color="#0c1e04"/>
    </linearGradient>
    <linearGradient id="shineSweep" x1="0" y1="0" x2="1" y2="0">
      <stop offset="0%" stop-color="#fff" stop-opacity="0"/>
      <stop offset="48%" stop-color="#fff" stop-opacity="0.06"/>
      <stop offset="50%" stop-color="#fff" stop-opacity="0.18"/>
      <stop offset="52%" stop-color="#fff" stop-opacity="0.06"/>
      <stop offset="100%" stop-color="#fff" stop-opacity="0"/>
    </linearGradient>
    <filter id="glow" x="-30%" y="-30%" width="160%" height="160%">
      <feGaussianBlur in="SourceGraphic" stdDeviation="8" result="blur"/>
      <feMerge><feMergeNode in="blur"/><feMergeNode in="blur"/><feMergeNode in="SourceGraphic"/></feMerge>
    </filter>
    <filter id="textGlow" x="-15%" y="-50%" width="130%" height="200%">
      <feGaussianBlur in="SourceGraphic" stdDeviation="10" result="blur"/>
      <feMerge><feMergeNode in="blur"/><feMergeNode in="blur"/><feMergeNode in="SourceGraphic"/></feMerge>
    </filter>
    <filter id="softGlow" x="-50%" y="-50%" width="200%" height="200%">
      <feGaussianBlur stdDeviation="20"/>
    </filter>
    <filter id="coinGlow" x="-50%" y="-50%" width="200%" height="200%">
      <feGaussianBlur stdDeviation="5" result="blur"/>
      <feMerge><feMergeNode in="blur"/><feMergeNode in="SourceGraphic"/></feMerge>
    </filter>
    <clipPath id="mainClip">
      <rect width="1200" height="400" rx="28" ry="28"/>
    </clipPath>
  </defs>

  <g clip-path="url(#mainClip)">
    <rect width="1200" height="400" fill="url(#sky)"/>
    <ellipse cx="600" cy="400" rx="800" ry="280" fill="url(#horizonBloom)"/>

    <!-- Nebula wisps -->
    <ellipse cx="200" cy="100" rx="180" ry="70" fill="#2a0550" opacity="0.4" filter="url(#softGlow)"/>
    <ellipse cx="1000" cy="120" rx="150" ry="60" fill="#200442" opacity="0.35" filter="url(#softGlow)"/>
    <ellipse cx="600" cy="50" rx="300" ry="80" fill="#1a0338" opacity="0.3" filter="url(#softGlow)"/>

    <!-- Moon -->
    <circle cx="960" cy="72" r="55" fill="#fffbe0" opacity="0.12" filter="url(#softGlow)"/>
    <circle cx="960" cy="72" r="38" fill="#fffbe0" opacity="0.18" filter="url(#softGlow)"/>
    <circle cx="960" cy="72" r="28" fill="#fff8d0"/>
    <circle cx="952" cy="65" r="6" fill="#e8d8a0" opacity="0.35"/>
    <circle cx="967" cy="78" r="4" fill="#e8d8a0" opacity="0.25"/>
    <circle cx="960" cy="72" r="44" fill="none" stroke="#fffbe0" stroke-width="1.5" opacity="0.15">
      <animate attributeName="r" values="42;56;42" dur="4s" repeatCount="indefinite"/>
      <animate attributeName="opacity" values="0.15;0.03;0.15" dur="4s" repeatCount="indefinite"/>
    </circle>

    <!-- Stars -->
    <circle cx="50" cy="30" r="1.2" fill="#fff" opacity="0.9"><animate attributeName="opacity" values="0.9;0.2;0.9" dur="2.3s" repeatCount="indefinite"/></circle>
    <circle cx="130" cy="55" r="1" fill="#fff" opacity="0.7"><animate attributeName="opacity" values="0.7;0.1;0.7" dur="3.1s" repeatCount="indefinite"/></circle>
    <circle cx="220" cy="28" r="1.5" fill="#fff" opacity="0.8"><animate attributeName="opacity" values="0.8;0.15;0.8" dur="1.9s" repeatCount="indefinite"/></circle>
    <circle cx="310" cy="45" r="1" fill="#ddeeff" opacity="0.7"><animate attributeName="opacity" values="0.7;0.1;0.7" dur="2.7s" repeatCount="indefinite"/></circle>
    <circle cx="380" cy="22" r="1.3" fill="#fff" opacity="0.6"><animate attributeName="opacity" values="0.6;0.1;0.6" dur="3.5s" repeatCount="indefinite"/></circle>
    <circle cx="450" cy="40" r="1" fill="#fff" opacity="0.5"><animate attributeName="opacity" values="0.5;0.08;0.5" dur="2.1s" repeatCount="indefinite"/></circle>
    <circle cx="520" cy="18" r="1.5" fill="#eef4ff" opacity="0.8"><animate attributeName="opacity" values="0.8;0.2;0.8" dur="1.7s" repeatCount="indefinite"/></circle>
    <circle cx="680" cy="35" r="1" fill="#fff" opacity="0.65"><animate attributeName="opacity" values="0.65;0.1;0.65" dur="2.9s" repeatCount="indefinite"/></circle>
    <circle cx="750" cy="20" r="1.2" fill="#fff" opacity="0.75"><animate attributeName="opacity" values="0.75;0.15;0.75" dur="2.4s" repeatCount="indefinite"/></circle>
    <circle cx="820" cy="48" r="1" fill="#fff" opacity="0.5"><animate attributeName="opacity" values="0.5;0.05;0.5" dur="3.8s" repeatCount="indefinite"/></circle>
    <circle cx="1050" cy="30" r="1.3" fill="#fff" opacity="0.7"><animate attributeName="opacity" values="0.7;0.1;0.7" dur="2.2s" repeatCount="indefinite"/></circle>
    <circle cx="1100" cy="55" r="1" fill="#ddeeff" opacity="0.6"><animate attributeName="opacity" values="0.6;0.1;0.6" dur="3.2s" repeatCount="indefinite"/></circle>
    <circle cx="1150" cy="35" r="1.5" fill="#fff" opacity="0.8"><animate attributeName="opacity" values="0.8;0.2;0.8" dur="1.8s" repeatCount="indefinite"/></circle>
    <circle cx="170" cy="80" r="1" fill="#fff" opacity="0.4"><animate attributeName="opacity" values="0.4;0.05;0.4" dur="4.1s" repeatCount="indefinite"/></circle>
    <circle cx="850" cy="22" r="1.2" fill="#fff" opacity="0.7"><animate attributeName="opacity" values="0.7;0.1;0.7" dur="2.6s" repeatCount="indefinite"/></circle>

    <!-- Shooting star -->
    <line x1="-100" y1="80" x2="-40" y2="100" stroke="#fffbe0" stroke-width="1.5">
      <animate attributeName="x1" values="-100;1400" dur="7s" begin="3s" repeatCount="indefinite"/>
      <animate attributeName="x2" values="-40;1460" dur="7s" begin="3s" repeatCount="indefinite"/>
      <animate attributeName="y1" values="80;200" dur="7s" begin="3s" repeatCount="indefinite"/>
      <animate attributeName="y2" values="100;220" dur="7s" begin="3s" repeatCount="indefinite"/>
      <animate attributeName="opacity" values="0;0.9;0.9;0" dur="7s" begin="3s" repeatCount="indefinite"/>
    </line>

    <!-- Mountains far -->
    <polygon points="0,340 80,240 160,300 250,210 360,290 460,220 550,280 600,330 650,270 750,215 850,270 950,230 1050,280 1120,250 1200,290 1200,340" fill="#1a0535" opacity="0.55"/>
    <!-- Hills near -->
    <polygon points="0,340 100,298 200,322 320,288 450,312 600,332 750,310 880,292 1000,318 1100,298 1200,312 1200,340" fill="#12022a" opacity="0.75"/>

    <!-- Ground -->
    <rect x="0" y="330" width="1200" height="70" fill="url(#groundGrad)"/>
    <rect x="0" y="328" width="1200" height="7" fill="#2a5a06" opacity="0.95"/>
    <rect x="0" y="328" width="1200" height="2" fill="#3a7a0a" opacity="0.5"/>

    <!-- Ground glow under trader -->
    <ellipse cx="600" cy="330" rx="140" ry="12" fill="#aa44ff" opacity="0.2" filter="url(#softGlow)">
      <animate attributeName="opacity" values="0.18;0.38;0.18" dur="2.5s" repeatCount="indefinite"/>
    </ellipse>

    <!-- Trader aura -->
    <ellipse cx="600" cy="250" rx="190" ry="125" fill="url(#traderAura)">
      <animate attributeName="rx" values="175;215;175" dur="3s" repeatCount="indefinite"/>
      <animate attributeName="opacity" values="0.75;1;0.75" dur="3s" repeatCount="indefinite"/>
    </ellipse>

    <!-- === LEFT LLAMA === -->
    <ellipse cx="438" cy="329" rx="40" ry="8" fill="#000" opacity="0.22"/>
    <rect x="390" y="248" width="98" height="76" rx="8" fill="#d4b896"/>
    <rect x="445" y="250" width="43" height="72" rx="7" fill="#c4a880" opacity="0.45"/>
    <rect x="428" y="198" width="34" height="54" rx="6" fill="#d4b896"/>
    <rect x="445" y="200" width="17" height="50" rx="5" fill="#c4a880" opacity="0.45"/>
    <rect x="418" y="164" width="56" height="38" rx="6" fill="#d4b896"/>
    <rect x="422" y="150" width="11" height="19" rx="4" fill="#d4b896"/>
    <rect x="461" y="150" width="11" height="19" rx="4" fill="#d4b896"/>
    <circle cx="433" cy="179" r="5.5" fill="#2a1a08"/>
    <circle cx="431" cy="177" r="2.2" fill="#fff" opacity="0.8"/>
    <ellipse cx="446" cy="190" rx="4" ry="3" fill="#c4a068" opacity="0.55"/>
    <rect x="396" y="320" width="17" height="18" rx="3" fill="#c4a068"/>
    <rect x="420" y="320" width="17" height="18" rx="3" fill="#c4a068"/>
    <rect x="450" y="320" width="17" height="18" rx="3" fill="#c4a068"/>
    <rect x="470" y="320" width="17" height="18" rx="3" fill="#c4a068"/>
    <rect x="383" y="262" width="28" height="44" rx="5" fill="#8b4513"/>
    <rect x="479" y="262" width="28" height="44" rx="5" fill="#8b4513"/>
    <rect x="387" y="268" width="20" height="7" rx="2" fill="#a0531a" opacity="0.5"/>
    <rect x="483" y="268" width="20" height="7" rx="2" fill="#a0531a" opacity="0.5"/>

    <!-- === RIGHT LLAMA === -->
    <ellipse cx="762" cy="329" rx="40" ry="8" fill="#000" opacity="0.22"/>
    <rect x="712" y="248" width="98" height="76" rx="8" fill="#c8b288"/>
    <rect x="766" y="250" width="44" height="72" rx="7" fill="#b8a278" opacity="0.45"/>
    <rect x="736" y="198" width="34" height="54" rx="6" fill="#c8b288"/>
    <rect x="720" y="164" width="56" height="38" rx="6" fill="#c8b288"/>
    <rect x="724" y="150" width="11" height="19" rx="4" fill="#c8b288"/>
    <rect x="763" y="150" width="11" height="19" rx="4" fill="#c8b288"/>
    <circle cx="735" cy="179" r="5.5" fill="#2a1a08"/>
    <circle cx="733" cy="177" r="2.2" fill="#fff" opacity="0.8"/>
    <ellipse cx="748" cy="190" rx="4" ry="3" fill="#b49060" opacity="0.55"/>
    <rect x="718" y="320" width="17" height="18" rx="3" fill="#b89060"/>
    <rect x="742" y="320" width="17" height="18" rx="3" fill="#b89060"/>
    <rect x="762" y="320" width="17" height="18" rx="3" fill="#b89060"/>
    <rect x="784" y="320" width="17" height="18" rx="3" fill="#b89060"/>
    <rect x="703" y="262" width="28" height="44" rx="5" fill="#7a3c0f"/>
    <rect x="797" y="262" width="28" height="44" rx="5" fill="#7a3c0f"/>

    <!-- Leashes -->
    <path d="M 543 268 Q 490 282 482 296" stroke="#cc9900" stroke-width="2.5" fill="none" opacity="0.75"/>
    <path d="M 657 268 Q 712 282 718 296" stroke="#cc9900" stroke-width="2.5" fill="none" opacity="0.75"/>

    <!-- === WANDERING TRADER === -->
    <ellipse cx="600" cy="329" rx="36" ry="7" fill="#000" opacity="0.3"/>
    <!-- Boots -->
    <rect x="580" y="308" width="20" height="18" rx="3" fill="#3d2a10"/>
    <rect x="600" y="308" width="20" height="18" rx="3" fill="#3d2a10"/>
    <rect x="582" y="309" width="8" height="5" rx="1" fill="#5a3e18" opacity="0.65"/>
    <rect x="602" y="309" width="8" height="5" rx="1" fill="#5a3e18" opacity="0.65"/>
    <!-- Legs -->
    <rect x="581" y="275" width="19" height="36" rx="3" fill="#8b6040"/>
    <rect x="600" y="275" width="19" height="36" rx="3" fill="#7a5538"/>
    <!-- Robe -->
    <rect x="566" y="202" width="68" height="78" rx="6" fill="#1a44bb"/>
    <rect x="600" y="202" width="34" height="78" rx="5" fill="#163aaa" opacity="0.6"/>
    <rect x="573" y="206" width="18" height="70" rx="3" fill="#2a5aee" opacity="0.4"/>
    <!-- Belt -->
    <rect x="563" y="255" width="74" height="10" rx="3" fill="#8b6914"/>
    <rect x="593" y="253" width="14" height="14" rx="2" fill="#ddaa00"/>
    <!-- Arms -->
    <rect x="539" y="208" width="24" height="58" rx="5" fill="#163aaa"/>
    <rect x="637" y="208" width="24" height="58" rx="5" fill="#163aaa"/>
    <rect x="541" y="210" width="10" height="50" rx="3" fill="#2a55cc" opacity="0.35"/>
    <!-- Hands -->
    <rect x="542" y="262" width="18" height="16" rx="4" fill="#d4a574"/>
    <rect x="640" y="262" width="18" height="16" rx="4" fill="#d4a574"/>
    <!-- Neck -->
    <rect x="588" y="192" width="24" height="14" rx="3" fill="#d4a574"/>
    <!-- Head -->
    <rect x="572" y="148" width="56" height="48" rx="6" fill="#d4a574"/>
    <rect x="600" y="150" width="28" height="44" rx="5" fill="#c49060" opacity="0.35"/>
    <!-- Nose -->
    <rect x="594" y="170" width="12" height="9" rx="2" fill="#c49060"/>
    <!-- Eyes -->
    <rect x="578" y="162" width="13" height="13" rx="2" fill="#1a1a2e"/>
    <rect x="609" y="162" width="13" height="13" rx="2" fill="#1a1a2e"/>
    <rect x="580" y="164" width="5" height="5" rx="1" fill="#fff" opacity="0.85"/>
    <rect x="611" y="164" width="5" height="5" rx="1" fill="#fff" opacity="0.85"/>
    <!-- Eye glow animated -->
    <circle cx="584" cy="168" r="8" fill="#44aaff" opacity="0.12" filter="url(#softGlow)">
      <animate attributeName="opacity" values="0.12;0.38;0.12" dur="2s" repeatCount="indefinite"/>
    </circle>
    <circle cx="615" cy="168" r="8" fill="#44aaff" opacity="0.12" filter="url(#softGlow)">
      <animate attributeName="opacity" values="0.12;0.38;0.12" dur="2s" repeatCount="indefinite"/>
    </circle>
    <!-- Eyebrows -->
    <rect x="577" y="157" width="15" height="4" rx="2" fill="#4a3010"/>
    <rect x="608" y="157" width="15" height="4" rx="2" fill="#4a3010"/>
    <!-- Beard -->
    <rect x="575" y="183" width="50" height="16" rx="7" fill="#c8b890"/>
    <rect x="579" y="185" width="9" height="12" rx="3" fill="#d4c8a0" opacity="0.5"/>
    <rect x="592" y="185" width="9" height="12" rx="3" fill="#b8a870" opacity="0.5"/>
    <rect x="607" y="185" width="9" height="12" rx="3" fill="#d4c8a0" opacity="0.5"/>
    <!-- Hat brim -->
    <rect x="557" y="145" width="86" height="10" rx="4" fill="#163aaa"/>
    <!-- Hat top -->
    <rect x="567" y="122" width="66" height="27" rx="5" fill="#1a44bb"/>
    <rect x="573" y="124" width="22" height="22" rx="3" fill="#2a5aee" opacity="0.3"/>
    <rect x="567" y="142" width="66" height="6" rx="2" fill="#ddaa00"/>
    <!-- Staff -->
    <rect x="654" y="165" width="8" height="115" rx="4" fill="#8b5c14" filter="url(#glow)"/>
    <rect x="656" y="165" width="3" height="110" rx="2" fill="#c8941c" opacity="0.4"/>
    <!-- Staff orb glow layers -->
    <circle cx="658" cy="157" r="20" fill="#8833ff" opacity="0.25" filter="url(#softGlow)">
      <animate attributeName="r" values="18;26;18" dur="2s" repeatCount="indefinite"/>
    </circle>
    <circle cx="658" cy="157" r="13" fill="#aa44ff" opacity="0.5" filter="url(#glow)">
      <animate attributeName="opacity" values="0.45;0.9;0.45" dur="2s" repeatCount="indefinite"/>
    </circle>
    <circle cx="658" cy="157" r="7" fill="#cc88ff">
      <animate attributeName="r" values="6;9;6" dur="2s" repeatCount="indefinite"/>
    </circle>
    <circle cx="654" cy="153" r="3" fill="#fff" opacity="0.85"/>

    <!-- === FLOATING COINS LEFT === -->
    <g filter="url(#coinGlow)">
      <ellipse cx="348" cy="210" rx="21" ry="16" fill="#ffcc00">
        <animate attributeName="cy" values="210;194;210" dur="2.3s" repeatCount="indefinite"/>
      </ellipse>
      <ellipse cx="348" cy="210" rx="14" ry="10" fill="#fff08a">
        <animate attributeName="cy" values="210;194;210" dur="2.3s" repeatCount="indefinite"/>
      </ellipse>
      <text x="340" y="215" font-size="14" fill="#aa7700" font-weight="bold" font-family="Georgia,serif">
        <animate attributeName="y" values="215;199;215" dur="2.3s" repeatCount="indefinite"/>$</text>
    </g>
    <g filter="url(#coinGlow)" opacity="0.82">
      <ellipse cx="312" cy="256" rx="15" ry="12" fill="#ffcc00">
        <animate attributeName="cy" values="256;243;256" dur="3.1s" repeatCount="indefinite"/>
      </ellipse>
      <ellipse cx="312" cy="256" rx="10" ry="8" fill="#fff08a">
        <animate attributeName="cy" values="256;243;256" dur="3.1s" repeatCount="indefinite"/>
      </ellipse>
    </g>
    <g filter="url(#coinGlow)" opacity="0.62">
      <ellipse cx="374" cy="281" rx="12" ry="9" fill="#ffcc00">
        <animate attributeName="cy" values="281;269;281" dur="2.7s" repeatCount="indefinite"/>
      </ellipse>
    </g>

    <!-- === FLOATING COINS RIGHT === -->
    <g filter="url(#coinGlow)">
      <ellipse cx="852" cy="204" rx="21" ry="16" fill="#ffcc00">
        <animate attributeName="cy" values="204;188;204" dur="2.6s" repeatCount="indefinite"/>
      </ellipse>
      <ellipse cx="852" cy="204" rx="14" ry="10" fill="#fff08a">
        <animate attributeName="cy" values="204;188;204" dur="2.6s" repeatCount="indefinite"/>
      </ellipse>
      <text x="844" y="209" font-size="14" fill="#aa7700" font-weight="bold" font-family="Georgia,serif">
        <animate attributeName="y" values="209;193;209" dur="2.6s" repeatCount="indefinite"/>$</text>
    </g>
    <g filter="url(#coinGlow)" opacity="0.78">
      <ellipse cx="887" cy="256" rx="15" ry="11" fill="#ffcc00">
        <animate attributeName="cy" values="256;244;256" dur="1.9s" repeatCount="indefinite"/>
      </ellipse>
      <ellipse cx="887" cy="256" rx="10" ry="7" fill="#fff08a">
        <animate attributeName="cy" values="256;244;256" dur="1.9s" repeatCount="indefinite"/>
      </ellipse>
    </g>
    <g filter="url(#coinGlow)" opacity="0.58">
      <ellipse cx="820" cy="276" rx="11" ry="8" fill="#ffcc00">
        <animate attributeName="cy" values="276;264;276" dur="3.4s" repeatCount="indefinite"/>
      </ellipse>
    </g>

    <!-- Magic rising particles -->
    <circle cx="580" cy="330" r="3" fill="#aa44ff" opacity="0.8">
      <animate attributeName="cy" values="330;288;330" dur="1.8s" repeatCount="indefinite"/>
      <animate attributeName="opacity" values="0.8;0;0.8" dur="1.8s" repeatCount="indefinite"/>
    </circle>
    <circle cx="606" cy="330" r="2.5" fill="#cc66ff" opacity="0.7">
      <animate attributeName="cy" values="330;278;330" dur="2.2s" begin="0.4s" repeatCount="indefinite"/>
      <animate attributeName="opacity" values="0.7;0;0.7" dur="2.2s" begin="0.4s" repeatCount="indefinite"/>
    </circle>
    <circle cx="622" cy="330" r="3" fill="#8833ff" opacity="0.6">
      <animate attributeName="cy" values="330;284;330" dur="1.9s" begin="0.8s" repeatCount="indefinite"/>
      <animate attributeName="opacity" values="0.6;0;0.6" dur="1.9s" begin="0.8s" repeatCount="indefinite"/>
    </circle>
    <circle cx="564" cy="330" r="2" fill="#ff66cc" opacity="0.7">
      <animate attributeName="cy" values="330;294;330" dur="2.5s" begin="1.2s" repeatCount="indefinite"/>
      <animate attributeName="opacity" values="0.7;0;0.7" dur="2.5s" begin="1.2s" repeatCount="indefinite"/>
    </circle>
    <!-- Sparkles around trader -->
    <circle cx="528" cy="200" r="3" fill="#ffee88" opacity="0.8">
      <animate attributeName="cy" values="200;178;200" dur="2s" repeatCount="indefinite"/>
      <animate attributeName="opacity" values="0.8;0;0.8" dur="2s" repeatCount="indefinite"/>
    </circle>
    <circle cx="677" cy="184" r="2.5" fill="#ffee88" opacity="0.7">
      <animate attributeName="cy" values="184;162;184" dur="2.4s" begin="0.6s" repeatCount="indefinite"/>
      <animate attributeName="opacity" values="0.7;0;0.7" dur="2.4s" begin="0.6s" repeatCount="indefinite"/>
    </circle>
    <circle cx="554" cy="292" r="2" fill="#aaddff" opacity="0.6">
      <animate attributeName="cy" values="292;273;292" dur="3.2s" begin="1s" repeatCount="indefinite"/>
      <animate attributeName="opacity" values="0.6;0;0.6" dur="3.2s" begin="1s" repeatCount="indefinite"/>
    </circle>
    <circle cx="648" cy="300" r="2" fill="#aaddff" opacity="0.5">
      <animate attributeName="cy" values="300;281;300" dur="2.8s" begin="0.3s" repeatCount="indefinite"/>
      <animate attributeName="opacity" values="0.5;0;0.5" dur="2.8s" begin="0.3s" repeatCount="indefinite"/>
    </circle>
    <!-- Diamond sparkle stars -->
    <path d="M 500 150 L 503 158 L 511 161 L 503 164 L 500 172 L 497 164 L 489 161 L 497 158 Z" fill="#ffe066" opacity="0.7" filter="url(#glow)">
      <animate attributeName="opacity" values="0.7;0.1;0.7" dur="2.5s" repeatCount="indefinite"/>
      <animateTransform attributeName="transform" type="rotate" values="0 500 161;360 500 161" dur="6s" repeatCount="indefinite"/>
    </path>
    <path d="M 712 155 L 715 162 L 722 165 L 715 168 L 712 175 L 709 168 L 702 165 L 709 162 Z" fill="#cc88ff" opacity="0.6" filter="url(#glow)">
      <animate attributeName="opacity" values="0.6;0.05;0.6" dur="3s" begin="1s" repeatCount="indefinite"/>
      <animateTransform attributeName="transform" type="rotate" values="0 712 165;360 712 165" dur="5s" repeatCount="indefinite"/>
    </path>
    <path d="M 230 180 L 232 186 L 238 188 L 232 190 L 230 196 L 228 190 L 222 188 L 228 186 Z" fill="#88ddff" opacity="0.5" filter="url(#glow)">
      <animate attributeName="opacity" values="0.5;0.05;0.5" dur="4s" begin="2s" repeatCount="indefinite"/>
      <animateTransform attributeName="transform" type="rotate" values="0 230 188;360 230 188" dur="8s" repeatCount="indefinite"/>
    </path>

    <!-- Title shadow -->
    <text x="600" y="91" text-anchor="middle" font-family="'Arial Black','Impact',sans-serif" font-size="68" font-weight="900" fill="#220044" opacity="0.55" filter="url(#softGlow)">FREQUENT TRADERS</text>
    <!-- Title glow -->
    <text x="600" y="91" text-anchor="middle" font-family="'Arial Black','Impact',sans-serif" font-size="68" font-weight="900" fill="#ffcc00" filter="url(#textGlow)" opacity="0.35">FREQUENT TRADERS</text>
    <!-- Title main -->
    <text x="600" y="91" text-anchor="middle" font-family="'Arial Black','Impact',sans-serif" font-size="68" font-weight="900" fill="url(#goldGrad)">
      <animate attributeName="opacity" values="1;0.88;1" dur="3s" repeatCount="indefinite"/>FREQUENT TRADERS</text>

    <!-- Subtitle -->
    <text x="600" y="128" text-anchor="middle" font-family="'Segoe UI','Arial',sans-serif" font-size="20" fill="url(#silverGrad)" letter-spacing="5" opacity="0.9">MORE TRADERS · LESS WAITING</text>

    <!-- Decorative lines -->
    <line x1="100" y1="116" x2="280" y2="116" stroke="#ffcc00" stroke-width="1" opacity="0.28"/>
    <line x1="920" y1="116" x2="1100" y2="116" stroke="#ffcc00" stroke-width="1" opacity="0.28"/>
    <circle cx="100" cy="116" r="2.5" fill="#ffcc00" opacity="0.4"/>
    <circle cx="1100" cy="116" r="2.5" fill="#ffcc00" opacity="0.4"/>

    <!-- Bottom bar -->
    <rect x="0" y="368" width="1200" height="32" fill="#000" opacity="0.5"/>
    <text x="600" y="389" text-anchor="middle" font-family="'Segoe UI','Arial',sans-serif" font-size="14" fill="#8899cc" letter-spacing="2">by MermoTEC  ·  MINECRAFT MOD  ·  FORGE &amp; NEOFORGE</text>

    <!-- Shine sweep -->
    <rect x="-700" y="0" width="420" height="400" fill="url(#shineSweep)">
      <animate attributeName="x" from="-700" to="1500" dur="5s" repeatCount="indefinite"/>
    </rect>

    <!-- Border double ring -->
    <rect x="1" y="1" width="1198" height="398" rx="27" ry="27" fill="none" stroke="#ffcc00" stroke-width="1.5" stroke-opacity="0.3"/>
    <rect x="4" y="4" width="1192" height="392" rx="25" ry="25" fill="none" stroke="#8833ff" stroke-width="1" stroke-opacity="0.18"/>
  </g>
</svg>